<svg xmlns="http://www.w3.org/2000/svg" viewBox="0 0 128 128">
  <!-- Background -->
  <rect width="128" height="128" rx="22" fill="#161b22"/>
  <!-- Folder shadow/depth -->
  <path d="M22 58a10 10 0 0 1 10-10h26l13 13H106a10 10 0 0 1 10 10v32a10 10 0 0 1-10 10H32a10 10 0 0 1-10-10z" fill="#1e3a5f" opacity=".6"/>
  <!-- Folder body -->
  <path d="M20 56a10 10 0 0 1 10-10h26l13 13H106a10 10 0 0 1 10 10v32a10 10 0 0 1-10 10H30a10 10 0 0 1-10-10z" fill="#4a9eff"/>
  <!-- Folder highlight top edge -->
  <path d="M20 56a10 10 0 0 1 10-10h26l6 6H20z" fill="#79c0ff" opacity=".35"/>
  <!-- File listing lines -->
  <path d="M36 80h28M36 91h44M36 102h18" stroke="white" stroke-width="5.5" stroke-linecap="round" opacity=".75"/>
  <!-- Magnifying glass accent -->
  <circle cx="91" cy="88" r="13" fill="none" stroke="white" stroke-width="4.5" opacity=".55"/>
  <line x1="100" y1="97" x2="108" y2="105" stroke="white" stroke-width="5" stroke-linecap="round" opacity=".55"/>
</svg>
